<mxfile host="app.diagrams.net" modified="2022-06-09T20:12:28.043Z" agent="5.0 (Windows NT 10.0; Win64; x64) AppleWebKit/537.36 (KHTML, like Gecko) Chrome/102.0.5005.63 Safari/537.36" etag="m9kaE8EgpjgdtXLkT7Bf" version="18.1.2" type="github">
  <diagram id="E3_kqrKY3rXFp5d82rC2" name="Page-1">
    <mxGraphModel dx="2249" dy="754" grid="1" gridSize="10" guides="1" tooltips="1" connect="1" arrows="1" fold="1" page="1" pageScale="1" pageWidth="827" pageHeight="1169" math="0" shadow="0">
      <root>
        <mxCell id="0" />
        <mxCell id="1" parent="0" />
        <mxCell id="nLDBs99_Sp3YXOiVpxCv-41" style="edgeStyle=orthogonalEdgeStyle;rounded=0;orthogonalLoop=1;jettySize=auto;html=1;entryX=0;entryY=0.5;entryDx=0;entryDy=0;" edge="1" parent="1" source="nLDBs99_Sp3YXOiVpxCv-1" target="nLDBs99_Sp3YXOiVpxCv-40">
          <mxGeometry relative="1" as="geometry" />
        </mxCell>
        <mxCell id="nLDBs99_Sp3YXOiVpxCv-1" value="tracking request" style="rounded=1;whiteSpace=wrap;html=1;" vertex="1" parent="1">
          <mxGeometry x="-220" y="320" width="120" height="60" as="geometry" />
        </mxCell>
        <mxCell id="nLDBs99_Sp3YXOiVpxCv-16" style="edgeStyle=orthogonalEdgeStyle;rounded=0;orthogonalLoop=1;jettySize=auto;html=1;entryX=0.467;entryY=0.125;entryDx=0;entryDy=0;entryPerimeter=0;" edge="1" parent="1" source="nLDBs99_Sp3YXOiVpxCv-4" target="nLDBs99_Sp3YXOiVpxCv-15">
          <mxGeometry relative="1" as="geometry">
            <Array as="points">
              <mxPoint x="426" y="410" />
              <mxPoint x="426" y="410" />
            </Array>
          </mxGeometry>
        </mxCell>
        <mxCell id="nLDBs99_Sp3YXOiVpxCv-4" value="insert into process queue. &lt;br&gt;Run job every 6 hours until completion" style="rounded=0;whiteSpace=wrap;html=1;" vertex="1" parent="1">
          <mxGeometry x="370" y="320" width="120" height="60" as="geometry" />
        </mxCell>
        <mxCell id="nLDBs99_Sp3YXOiVpxCv-9" style="edgeStyle=orthogonalEdgeStyle;rounded=0;orthogonalLoop=1;jettySize=auto;html=1;entryX=0.5;entryY=0;entryDx=0;entryDy=0;" edge="1" parent="1" source="nLDBs99_Sp3YXOiVpxCv-5" target="nLDBs99_Sp3YXOiVpxCv-10">
          <mxGeometry relative="1" as="geometry">
            <mxPoint x="235" y="430" as="targetPoint" />
          </mxGeometry>
        </mxCell>
        <mxCell id="nLDBs99_Sp3YXOiVpxCv-49" value="no" style="edgeLabel;html=1;align=center;verticalAlign=middle;resizable=0;points=[];" vertex="1" connectable="0" parent="nLDBs99_Sp3YXOiVpxCv-9">
          <mxGeometry x="-0.2222" y="2" relative="1" as="geometry">
            <mxPoint as="offset" />
          </mxGeometry>
        </mxCell>
        <mxCell id="nLDBs99_Sp3YXOiVpxCv-13" value="yes" style="edgeStyle=orthogonalEdgeStyle;rounded=0;orthogonalLoop=1;jettySize=auto;html=1;entryX=0;entryY=0.5;entryDx=0;entryDy=0;" edge="1" parent="1" source="nLDBs99_Sp3YXOiVpxCv-5" target="nLDBs99_Sp3YXOiVpxCv-4">
          <mxGeometry relative="1" as="geometry">
            <mxPoint x="310" y="350" as="targetPoint" />
          </mxGeometry>
        </mxCell>
        <mxCell id="nLDBs99_Sp3YXOiVpxCv-5" value="track until completion" style="rhombus;whiteSpace=wrap;html=1;" vertex="1" parent="1">
          <mxGeometry x="190" y="300" width="90" height="100" as="geometry" />
        </mxCell>
        <mxCell id="nLDBs99_Sp3YXOiVpxCv-17" style="edgeStyle=orthogonalEdgeStyle;rounded=0;orthogonalLoop=1;jettySize=auto;html=1;entryX=0.16;entryY=0.55;entryDx=0;entryDy=0;entryPerimeter=0;" edge="1" parent="1" source="nLDBs99_Sp3YXOiVpxCv-10" target="nLDBs99_Sp3YXOiVpxCv-15">
          <mxGeometry relative="1" as="geometry">
            <Array as="points">
              <mxPoint x="300" y="524" />
              <mxPoint x="300" y="524" />
            </Array>
          </mxGeometry>
        </mxCell>
        <mxCell id="nLDBs99_Sp3YXOiVpxCv-10" value="insert into process queue" style="whiteSpace=wrap;html=1;" vertex="1" parent="1">
          <mxGeometry x="175" y="490" width="120" height="60" as="geometry" />
        </mxCell>
        <mxCell id="nLDBs99_Sp3YXOiVpxCv-19" style="edgeStyle=orthogonalEdgeStyle;rounded=0;orthogonalLoop=1;jettySize=auto;html=1;entryX=0.5;entryY=0;entryDx=0;entryDy=0;" edge="1" parent="1" source="nLDBs99_Sp3YXOiVpxCv-15" target="nLDBs99_Sp3YXOiVpxCv-18">
          <mxGeometry relative="1" as="geometry" />
        </mxCell>
        <mxCell id="nLDBs99_Sp3YXOiVpxCv-32" style="edgeStyle=orthogonalEdgeStyle;rounded=0;orthogonalLoop=1;jettySize=auto;html=1;exitX=0.31;exitY=0.8;exitDx=0;exitDy=0;exitPerimeter=0;entryX=1;entryY=0.5;entryDx=0;entryDy=0;" edge="1" parent="1" source="nLDBs99_Sp3YXOiVpxCv-15" target="nLDBs99_Sp3YXOiVpxCv-34">
          <mxGeometry relative="1" as="geometry">
            <Array as="points">
              <mxPoint x="320" y="544" />
              <mxPoint x="320" y="630" />
              <mxPoint x="160" y="630" />
            </Array>
          </mxGeometry>
        </mxCell>
        <mxCell id="nLDBs99_Sp3YXOiVpxCv-33" value="process id" style="edgeLabel;html=1;align=center;verticalAlign=middle;resizable=0;points=[];" vertex="1" connectable="0" parent="nLDBs99_Sp3YXOiVpxCv-32">
          <mxGeometry x="0.3878" y="1" relative="1" as="geometry">
            <mxPoint as="offset" />
          </mxGeometry>
        </mxCell>
        <mxCell id="nLDBs99_Sp3YXOiVpxCv-15" value="render job" style="ellipse;shape=cloud;whiteSpace=wrap;html=1;" vertex="1" parent="1">
          <mxGeometry x="370" y="480" width="120" height="80" as="geometry" />
        </mxCell>
        <mxCell id="nLDBs99_Sp3YXOiVpxCv-21" value="" style="edgeStyle=orthogonalEdgeStyle;rounded=0;orthogonalLoop=1;jettySize=auto;html=1;" edge="1" parent="1" source="nLDBs99_Sp3YXOiVpxCv-18" target="nLDBs99_Sp3YXOiVpxCv-20">
          <mxGeometry relative="1" as="geometry" />
        </mxCell>
        <mxCell id="nLDBs99_Sp3YXOiVpxCv-18" value="fetch data" style="rounded=0;whiteSpace=wrap;html=1;" vertex="1" parent="1">
          <mxGeometry x="370" y="600" width="120" height="60" as="geometry" />
        </mxCell>
        <mxCell id="nLDBs99_Sp3YXOiVpxCv-28" value="" style="edgeStyle=orthogonalEdgeStyle;rounded=0;orthogonalLoop=1;jettySize=auto;html=1;" edge="1" parent="1" source="nLDBs99_Sp3YXOiVpxCv-20" target="nLDBs99_Sp3YXOiVpxCv-27">
          <mxGeometry relative="1" as="geometry" />
        </mxCell>
        <mxCell id="nLDBs99_Sp3YXOiVpxCv-20" value="cache" style="rounded=0;whiteSpace=wrap;html=1;" vertex="1" parent="1">
          <mxGeometry x="370" y="690" width="120" height="60" as="geometry" />
        </mxCell>
        <mxCell id="nLDBs99_Sp3YXOiVpxCv-27" value="call webhook" style="whiteSpace=wrap;html=1;rounded=0;" vertex="1" parent="1">
          <mxGeometry x="370" y="780" width="120" height="60" as="geometry" />
        </mxCell>
        <mxCell id="nLDBs99_Sp3YXOiVpxCv-30" style="edgeStyle=orthogonalEdgeStyle;rounded=0;orthogonalLoop=1;jettySize=auto;html=1;entryX=0.96;entryY=0.7;entryDx=0;entryDy=0;entryPerimeter=0;" edge="1" parent="1" source="nLDBs99_Sp3YXOiVpxCv-29" target="nLDBs99_Sp3YXOiVpxCv-15">
          <mxGeometry relative="1" as="geometry">
            <Array as="points">
              <mxPoint x="610" y="536" />
            </Array>
          </mxGeometry>
        </mxCell>
        <mxCell id="nLDBs99_Sp3YXOiVpxCv-29" value="tracking data" style="shape=parallelogram;perimeter=parallelogramPerimeter;whiteSpace=wrap;html=1;fixedSize=1;" vertex="1" parent="1">
          <mxGeometry x="560" y="320" width="120" height="60" as="geometry" />
        </mxCell>
        <mxCell id="nLDBs99_Sp3YXOiVpxCv-31" value="response" style="rounded=1;whiteSpace=wrap;html=1;" vertex="1" parent="1">
          <mxGeometry x="40" y="770" width="120" height="60" as="geometry" />
        </mxCell>
        <mxCell id="nLDBs99_Sp3YXOiVpxCv-35" style="edgeStyle=orthogonalEdgeStyle;rounded=0;orthogonalLoop=1;jettySize=auto;html=1;entryX=0.5;entryY=0;entryDx=0;entryDy=0;" edge="1" parent="1" source="nLDBs99_Sp3YXOiVpxCv-34" target="nLDBs99_Sp3YXOiVpxCv-31">
          <mxGeometry relative="1" as="geometry" />
        </mxCell>
        <mxCell id="nLDBs99_Sp3YXOiVpxCv-34" value="cache" style="rounded=0;whiteSpace=wrap;html=1;" vertex="1" parent="1">
          <mxGeometry x="40" y="600" width="120" height="60" as="geometry" />
        </mxCell>
        <mxCell id="nLDBs99_Sp3YXOiVpxCv-44" style="edgeStyle=orthogonalEdgeStyle;rounded=0;orthogonalLoop=1;jettySize=auto;html=1;entryX=0.5;entryY=0;entryDx=0;entryDy=0;" edge="1" parent="1" source="nLDBs99_Sp3YXOiVpxCv-40" target="nLDBs99_Sp3YXOiVpxCv-34">
          <mxGeometry relative="1" as="geometry" />
        </mxCell>
        <mxCell id="nLDBs99_Sp3YXOiVpxCv-45" style="edgeStyle=orthogonalEdgeStyle;rounded=0;orthogonalLoop=1;jettySize=auto;html=1;exitX=0.25;exitY=1;exitDx=0;exitDy=0;entryX=0;entryY=0.5;entryDx=0;entryDy=0;" edge="1" parent="1" source="nLDBs99_Sp3YXOiVpxCv-40" target="nLDBs99_Sp3YXOiVpxCv-31">
          <mxGeometry relative="1" as="geometry">
            <Array as="points">
              <mxPoint x="-30" y="380" />
              <mxPoint x="-30" y="800" />
            </Array>
          </mxGeometry>
        </mxCell>
        <mxCell id="nLDBs99_Sp3YXOiVpxCv-46" value="in cache" style="edgeLabel;html=1;align=center;verticalAlign=middle;resizable=0;points=[];" vertex="1" connectable="0" parent="nLDBs99_Sp3YXOiVpxCv-45">
          <mxGeometry x="-0.2179" y="-1" relative="1" as="geometry">
            <mxPoint as="offset" />
          </mxGeometry>
        </mxCell>
        <mxCell id="nLDBs99_Sp3YXOiVpxCv-47" style="edgeStyle=orthogonalEdgeStyle;rounded=0;orthogonalLoop=1;jettySize=auto;html=1;" edge="1" parent="1" source="nLDBs99_Sp3YXOiVpxCv-40" target="nLDBs99_Sp3YXOiVpxCv-5">
          <mxGeometry relative="1" as="geometry" />
        </mxCell>
        <mxCell id="nLDBs99_Sp3YXOiVpxCv-48" value="not in cache" style="edgeLabel;html=1;align=center;verticalAlign=middle;resizable=0;points=[];" vertex="1" connectable="0" parent="nLDBs99_Sp3YXOiVpxCv-47">
          <mxGeometry x="-0.2615" y="2" relative="1" as="geometry">
            <mxPoint as="offset" />
          </mxGeometry>
        </mxCell>
        <mxCell id="nLDBs99_Sp3YXOiVpxCv-40" value="job service" style="rounded=0;whiteSpace=wrap;html=1;" vertex="1" parent="1">
          <mxGeometry x="-60" y="320" width="120" height="60" as="geometry" />
        </mxCell>
      </root>
    </mxGraphModel>
  </diagram>
</mxfile>
